<svg xmlns="http://www.w3.org/2000/svg" xmlns:xlink="http://www.w3.org/1999/xlink" viewBox="0 0 338.26 80.22"><defs><style>.cls-1{fill-rule:evenodd;}.cls-2{fill:url(#linear-gradient);}</style><linearGradient id="linear-gradient" x1="27.11" y1="2.96" x2="27.67" y2="47.98" gradientUnits="userSpaceOnUse"><stop offset="0" stop-color="#707070" stop-opacity="0"/><stop offset="1"/></linearGradient></defs><title>cypherium_logo</title><g id="Layer_2" data-name="Layer 2"><g id="Layer_1-2" data-name="Layer 1"><path d="M108.24,48.94a11.59,11.59,0,0,0,5.3-1.39l.71-.47,3,5.83-.4.29c-.18.12-.58.34-1.21.67a14.77,14.77,0,0,1-2,.86,18.44,18.44,0,0,1-2.82.65,21.13,21.13,0,0,1-3.59.29A17,17,0,0,1,92.94,48a14.11,14.11,0,0,1-1-13.87,15.75,15.75,0,0,1,3.65-5,18,18,0,0,1,5.31-3.31,16.48,16.48,0,0,1,6.23-1.24,20.53,20.53,0,0,1,5.47.69,13.74,13.74,0,0,1,3.54,1.39l1,.69-3,5.83a4.87,4.87,0,0,0-.78-.53,12.11,12.11,0,0,0-2.07-.82,10.1,10.1,0,0,0-3.16-.51,12.18,12.18,0,0,0-4.52.8,8.31,8.31,0,0,0-3.17,2.11A9.73,9.73,0,0,0,98.78,37a8.14,8.14,0,0,0-.62,3.08,8.61,8.61,0,0,0,2.62,6.13Q103.39,48.94,108.24,48.94Z"/><path d="M118.81,25.09h8.38l6.37,9.61,6.38-9.61h8.37L137.05,41.66V55.13h-7V41.66Z"/><path d="M151.08,25.09h11.16a11.55,11.55,0,0,1,7.56,2.37,8.39,8.39,0,0,1,2.89,6.88,8.93,8.93,0,0,1-2.93,7.08A11,11,0,0,1,162.24,44h-4.19V55.13h-7Zm7,13.43h2a7.28,7.28,0,0,0,3.84-.92,3.31,3.31,0,0,0,1.5-3.05,3.33,3.33,0,0,0-1.5-3.07,7.18,7.18,0,0,0-3.84-.93h-2Z"/><path d="M184.58,43.07V55.13h-7v-30h7v12h9.85v-12h7v30h-7V43.07Z"/><path d="M225.87,25.09v6H215.35v6h10.08v6H215.35v6h10.52v6H208.38v-30Z"/><path d="M232.36,25.09h10.93a10.87,10.87,0,0,1,7.19,2.31A8.08,8.08,0,0,1,253.26,34a8.58,8.58,0,0,1-6.26,8.7l10.52,12.42h-8.85l-9.34-11.87V55.13h-7Zm7,13.32h.81c.65,0,1.19,0,1.63,0a8.07,8.07,0,0,0,1.52-.26,3.67,3.67,0,0,0,1.38-.62,3.09,3.09,0,0,0,.88-1.16,4.74,4.74,0,0,0,0-3.72,3.26,3.26,0,0,0-.88-1.16,3.84,3.84,0,0,0-1.38-.62,8,8,0,0,0-1.52-.25c-.44,0-1,0-1.63,0h-.81Z"/><path d="M268.59,25.09v30h-7v-30Z"/><path d="M299.21,25.09V44.46q0,5.53-3,8.37c-2,1.9-5,2.84-8.9,2.84s-6.87-.94-8.89-2.84-3-4.68-3-8.37V25.09h7V42.46q0,3.63,1.17,5.06a5.79,5.79,0,0,0,7.6,0q1.17-1.43,1.17-5.06V25.09Z"/><path d="M331.29,55.13l-1.45-17.81h-.18L323.4,54.94h-4.16L313,37.32h-.18l-1.45,17.81h-7l2.75-30h7.41l6.78,17.33,6.78-17.33h7.41l2.75,30Z"/><path class="cls-1" d="M45,50.78l5.47-3.16v-7c0-6.83-2.36-10.87-10.34-16L22.5,14C14.23,9,0,13.46,0,26.22V50.39A20.48,20.48,0,0,0,9.62,67L28.46,78.46c7.42,4.51,22,.4,22-13.25V53.38L45,56.2v9.18c0,8.13-8.88,10.75-14.29,7.79L13.93,63.3A17.09,17.09,0,0,1,5.55,49.54V27.07c0-8.95,8.4-11.51,13.51-8.76L36.78,29C40.16,31,45,35.81,45,41.22Z"/><path class="cls-1" d="M70.18,28.3c0-4.15-2.18-10.38-7.27-13.5l-7.4-4.55-5.41,2.8L57,17.2a15.37,15.37,0,0,1,7.86,13.57V55.85a17.93,17.93,0,0,1-3.28,11.22c4.28-2,8.6-7.21,8.6-12.21V28.3ZM50.89,7.42,41.36,1.56c-2.72-1.67-10.25-2.83-15.78,1C29,2,31.23,2.21,35.35,4.18l10,6Z"/><path class="cls-1" d="M53.14,20.65,31.59,7.4c-2.72-1.67-10.25-2.82-15.78,1,3.43-.58,5.65-.39,9.77,1.59l21.65,13a15.37,15.37,0,0,1,7.86,13.57V54.18a1.5,1.5,0,0,0,0,.22l0,6.63a20.93,20.93,0,0,1-3.57,12.14c4.29-2,8.83-7.86,8.83-12.86V34.15C60.41,30,58.22,23.77,53.14,20.65Z"/><path class="cls-2" d="M10.49,42.59V19.68a2.17,2.17,0,0,0-.38-1.21,9.54,9.54,0,0,1,5.51-1.16V41.1c0,9.56,4.17,13.09,8.51,15.58l3.59,2a.25.25,0,0,1,0,.44l-5.07,2.58a.24.24,0,0,1-.23,0l-1.23-.7C14.83,57.93,10.49,53,10.49,42.59Zm30.87,30a8.21,8.21,0,0,0,3.16-4.23h0L33,61.77a.24.24,0,0,0-.23,0l-5,2.6a.25.25,0,0,0,0,.43ZM35.61,51.16c-7.88-4.65-9.41-9-9.41-14.87V22.6l-5.52-3.32V36.16c0,10.26,3.7,14.74,9,17.79L45,63V56.68h0Z"/></g></g></svg>